<svg width="28" height="28" viewBox="0 0 28 28" fill="none" xmlns="http://www.w3.org/2000/svg">
<path d="M8.99999 21.18L6.99999 19.179L5.58899 20.589L8.99999 24L15 18L13.59 16.59L8.99999 21.18ZM26 28H22V26H26V14H22V6C21.9987 4.93954 21.5768 3.92289 20.827 3.17303C20.0771 2.42318 19.0604 2.00132 18 2V0C19.5907 0.00185261 21.1158 0.634588 22.2406 1.75941C23.3654 2.88422 23.9981 4.40927 24 6V12H26C26.5304 12 27.0391 12.2107 27.4142 12.5858C27.7893 12.9609 28 13.4696 28 14V26C28 26.5304 27.7893 27.0391 27.4142 27.4142C27.0391 27.7893 26.5304 28 26 28Z" fill="white"/>
<path d="M18 12H16V6C16 4.4087 15.3679 2.88258 14.2426 1.75736C13.1174 0.632141 11.5913 0 10 0C8.4087 0 6.88258 0.632141 5.75736 1.75736C4.63214 2.88258 4 4.4087 4 6V12H2C1.46957 12 0.960859 12.2107 0.585786 12.5858C0.210714 12.9609 0 13.4696 0 14V26C0 26.5304 0.210714 27.0391 0.585786 27.4142C0.960859 27.7893 1.46957 28 2 28H18C18.5304 28 19.0391 27.7893 19.4142 27.4142C19.7893 27.0391 20 26.5304 20 26V14C20 13.4696 19.7893 12.9609 19.4142 12.5858C19.0391 12.2107 18.5304 12 18 12ZM6 6C6 4.93913 6.42143 3.92172 7.17157 3.17157C7.92172 2.42143 8.93913 2 10 2C11.0609 2 12.0783 2.42143 12.8284 3.17157C13.5786 3.92172 14 4.93913 14 6V12H6V6ZM18 26H2V14H18V26Z" fill="white"/>
</svg>
