<svg width="35" height="35" viewBox="0 0 35 35" fill="none" xmlns="http://www.w3.org/2000/svg">
<path d="M7.26911 0C5.27178 0 3.79556 2.19482 3.86244 4.5732C3.92467 6.8598 3.84222 9.82203 3.248 12.2355C2.65222 14.6569 1.64578 16.1917 0 16.3889V18.6111C1.64578 18.8083 2.65222 20.3431 3.248 22.7645C3.84222 25.1799 3.92467 28.1402 3.86089 30.4268C3.79556 32.8052 5.27178 35 7.27067 35H27.7324C29.7298 35 31.2076 32.8052 31.1422 30.4268C31.0784 28.1402 31.1609 25.1799 31.7536 22.7645C32.3509 20.3431 33.3558 18.8083 35 18.6111V16.3889C33.3542 16.1917 32.3509 14.6569 31.7536 12.2355C31.1609 9.82203 31.0784 6.8598 31.1422 4.5732C31.2076 2.19482 29.7298 0 27.7324 0H7.26911ZM23.7284 21.544C23.7284 24.8206 21.7824 26.8085 18.5516 26.8085H13.0511C12.9731 26.809 12.8958 26.7901 12.8236 26.7529C12.7514 26.7157 12.6858 26.661 12.6306 26.5918C12.5753 26.5227 12.5315 26.4405 12.5017 26.35C12.4719 26.2595 12.4567 26.1624 12.4569 26.0645V8.9355C12.4569 8.83773 12.4723 8.74092 12.5022 8.65064C12.5321 8.56036 12.5759 8.47838 12.6311 8.40943C12.6863 8.34048 12.7519 8.2859 12.8239 8.24884C12.896 8.21178 12.9732 8.19297 13.0511 8.19348H18.5189C21.2131 8.19348 22.9818 10.0232 22.9818 12.837C22.9818 14.8092 21.7918 16.5783 20.2767 16.8869V16.9903C22.3393 17.2735 23.7284 19.068 23.7284 21.544ZM17.9511 10.5523H14.8151V16.1136H17.4564C19.4989 16.1136 20.6236 15.0806 20.6236 13.2353C20.6236 11.5072 19.656 10.5523 17.9511 10.5523ZM14.8151 18.3182V24.4477H18.0662C20.1927 24.4477 21.3173 23.3756 21.3173 21.3624C21.3173 19.3511 20.1616 18.3182 17.9293 18.3182H14.8151Z" fill="#FF5959"/>
</svg>
