<svg width="35" height="35" viewBox="0 0 35 35" fill="none" xmlns="http://www.w3.org/2000/svg">
<path d="M34.9469 15.0135L29.3259 12.705L29.328 7.8925L34.949 10.1996L34.9469 15.0135ZM34.9449 20.249L29.3259 17.9404V13.3438L34.9469 15.6508L34.9449 20.249ZM34.998 25.5427L29.3096 23.2094L29.3116 18.6112L35 20.946L34.998 25.5427ZM20.3952 16.0548L28.5582 12.7035V8.10833L20.3973 11.4596L20.3952 16.0548ZM15.3419 23.3217L28.5256 17.9098V13.3117L15.3419 18.725V23.3217ZM6.47445 32.2802L28.5725 23.2079V18.6112L6.47649 27.6821L6.47445 32.2802ZM12.5793 35L6.92364 32.6769L28.9421 23.6337L34.5978 25.9569L12.5793 35ZM0.053086 20.0929L5.67408 22.4L5.67203 27.3L0.0510444 24.9929L0.053086 20.0929ZM0.0551281 14.8575L5.67408 17.1646V21.7627L0.0510444 19.4542L0.0551281 14.8575ZM0.00204211 9.59L5.69041 11.9263L5.68837 16.5244L0 14.1881L0.00204211 9.59ZM14.6027 19.0488L6.44178 22.4V26.9967L14.6027 23.6454V19.0488ZM19.6582 11.7819L6.47241 17.1938V21.7919L19.6561 16.3785L19.6582 11.7819ZM28.5562 2.81021L6.42749 11.8956V16.4923L28.5562 7.40688V2.81021ZM22.6738 0L28.3295 2.32313L6.05793 11.4698L0.402229 9.14667L22.6738 0Z" fill="#FF5959"/>
</svg>
