<svg width="35" height="35" viewBox="0 0 35 35" fill="none" xmlns="http://www.w3.org/2000/svg">
<mask id="mask0_3_428" style="mask-type:luminance" maskUnits="userSpaceOnUse" x="0" y="0" width="35" height="35">
<path d="M17.5 35C27.165 35 35 27.165 35 17.5C35 7.83502 27.165 0 17.5 0C7.83502 0 0 7.83502 0 17.5C0 27.165 7.83502 35 17.5 35Z" fill="white"/>
</mask>
<g mask="url(#mask0_3_428)">
<path d="M17.5 35C27.165 35 35 27.165 35 17.5C35 7.83502 27.165 0 17.5 0C7.83502 0 0 7.83502 0 17.5C0 27.165 7.83502 35 17.5 35Z" fill="#FF5959"/>
<path d="M29.0711 30.6288L13.4442 10.5H10.5V24.4941H12.8554V13.4914L27.2221 32.0532C27.8694 31.6201 28.4871 31.1442 29.0711 30.6288Z" fill="url(#paint0_linear_3_428)"/>
<path d="M22.3612 10.5H24.6946V24.5H22.3612V10.5Z" fill="url(#paint1_linear_3_428)"/>
</g>
<defs>
<linearGradient id="paint0_linear_3_428" x1="1043.66" y1="1225.78" x2="1663.83" y2="1994.44" gradientUnits="userSpaceOnUse">
<stop stop-color="white"/>
<stop offset="1" stop-color="white" stop-opacity="0"/>
</linearGradient>
<linearGradient id="paint1_linear_3_428" x1="139.03" y1="10.5" x2="135.082" y2="1038.62" gradientUnits="userSpaceOnUse">
<stop stop-color="white"/>
<stop offset="1" stop-color="white" stop-opacity="0"/>
</linearGradient>
</defs>
</svg>
