<svg width="35" height="35" viewBox="0 0 35 35" fill="none" xmlns="http://www.w3.org/2000/svg">
<path d="M5.83333 35H29.1667C29.7855 35 30.379 34.7369 30.8166 34.2686C31.2542 33.8003 31.5 33.1652 31.5 32.503V25.0121C31.5 24.3499 31.2542 23.7148 30.8166 23.2465C30.379 22.7782 29.7855 22.5151 29.1667 22.5151H5.83333C5.21449 22.5151 4.621 22.7782 4.18342 23.2465C3.74583 23.7148 3.5 24.3499 3.5 25.0121V32.503C3.5 33.1652 3.74583 33.8003 4.18342 34.2686C4.621 34.7369 5.21449 35 5.83333 35ZM5.83333 25.0121H29.1667V32.503H5.83333V25.0121Z" fill="white"/>
<path d="M9.33329 30.0061C9.97762 30.0061 10.5 29.4472 10.5 28.7576C10.5 28.0681 9.97762 27.5092 9.33329 27.5092C8.68896 27.5092 8.16663 28.0681 8.16663 28.7576C8.16663 29.4472 8.68896 30.0061 9.33329 30.0061Z" fill="white"/>
<path d="M29.1667 0.0424447L27.5217 1.8028L30.5317 5.03637H24.8675C24.0394 3.13485 22.5985 1.61655 20.809 0.759969C19.0195 -0.0966133 17.0014 -0.234049 15.1248 0.372871C13.2483 0.979791 11.6391 2.29037 10.5925 4.06423C9.54584 5.83809 9.13194 7.95628 9.42667 10.0303H4.46833L7.47833 6.79673L5.83333 5.03637L0 11.2788L5.83333 17.5212L7.47833 15.7608L4.46833 12.5273H10.1325C10.9606 14.4288 12.4015 15.9471 14.191 16.8037C15.9805 17.6602 17.9986 17.7977 19.8752 17.1908C21.7517 16.5838 23.3609 15.2733 24.4075 13.4994C25.4542 11.7255 25.8681 9.60735 25.5733 7.53333H30.5317L27.5217 10.7669L29.1667 12.5273L35 6.28485L29.1667 0.0424447ZM23.3333 8.78181C23.3374 10.0901 22.9559 11.3664 22.2431 12.4294C21.5303 13.4923 20.5225 14.2877 19.363 14.7025C18.2036 15.1173 16.9514 15.1303 15.7846 14.7398C14.6178 14.3493 13.5957 13.5751 12.8637 12.5273H17.5V10.0303H11.7845C11.5145 8.6434 11.6947 7.19944 12.2954 5.93699C12.8961 4.67455 13.8812 3.66919 15.0881 3.08702C16.295 2.50486 17.6514 2.38074 18.9331 2.73518C20.2149 3.08961 21.3453 3.90139 22.1375 5.03637H17.5V7.53333H23.2155C23.2939 7.9442 23.3333 8.36248 23.3333 8.78181Z" fill="white"/>
</svg>
