<svg width="35" height="35" viewBox="0 0 35 35" fill="none" xmlns="http://www.w3.org/2000/svg">
<path d="M4.375 0C3.21468 0 2.10188 0.460936 1.28141 1.28141C0.460936 2.10188 0 3.21468 0 4.375L0 30.625C0 31.7853 0.460936 32.8981 1.28141 33.7186C2.10188 34.5391 3.21468 35 4.375 35H30.625C31.7853 35 32.8981 34.5391 33.7186 33.7186C34.5391 32.8981 35 31.7853 35 30.625V4.375C35 3.21468 34.5391 2.10188 33.7186 1.28141C32.8981 0.460936 31.7853 0 30.625 0L4.375 0ZM17.9944 11.7797C16.7169 11.7797 15.9447 12.1384 15.9447 13.0769C15.9447 14.1006 17.2725 14.5512 18.9197 15.1112C21.6059 16.0191 25.1409 17.2178 25.1562 21.6584C25.1562 25.9613 21.7087 28.4375 16.6906 28.4375C14.4268 28.428 12.1882 27.9623 10.1084 27.0681V21.3456C12.1341 22.4525 14.6912 23.2706 16.6928 23.2706C18.0425 23.2706 19.0072 22.9097 19.0072 21.8028C19.0072 20.6697 17.5678 20.1512 15.8288 19.5256C13.1819 18.5719 9.84375 17.3687 9.84375 13.3656C9.84375 9.11094 13.0988 6.5625 17.9944 6.5625C20.0403 6.5442 22.0706 6.91923 23.975 7.66719V13.3175C22.1419 12.3331 19.8275 11.7797 17.9944 11.7797Z" fill="#FF5959"/>
</svg>
